<?xml version="1.0" standalone="no"?>
<!DOCTYPE svg PUBLIC "-//W3C//DTD SVG 20010904//EN"
 "http://www.w3.org/TR/2001/REC-SVG-20010904/DTD/svg10.dtd">
<svg version="1.0" xmlns="http://www.w3.org/2000/svg"
 width="648.000000pt" height="648.000000pt" viewBox="0 0 648.000000 648.000000"
 preserveAspectRatio="xMidYMid meet">
<metadata>
Created by potrace 1.14, written by Peter Selinger 2001-2017
</metadata>
<g transform="translate(0.000000,648.000000) scale(0.100000,-0.100000)"
fill="#000000" stroke="none">
<path d="M3008 6475 c-1 -1 -34 -6 -73 -9 -117 -11 -166 -17 -270 -37 -55 -11
-113 -21 -130 -23 -16 -3 -42 -9 -57 -15 -16 -6 -28 -9 -28 -6 0 2 -18 -2 -40
-10 -22 -8 -43 -14 -45 -14 -10 1 -150 -44 -180 -56 -16 -8 -43 -17 -60 -21
-16 -4 -52 -18 -79 -30 -28 -13 -53 -24 -57 -24 -4 0 -52 -21 -106 -47 -54
-25 -101 -45 -105 -45 -5 1 -8 -3 -8 -8 0 -6 -5 -10 -12 -10 -11 0 -239 -127
-248 -139 -3 -3 -17 -13 -31 -21 -15 -8 -39 -24 -55 -35 -70 -51 -241 -179
-254 -192 -8 -7 -48 -44 -89 -81 -137 -124 -256 -250 -346 -367 -11 -14 -29
-36 -40 -48 -11 -12 -33 -42 -50 -67 -16 -25 -42 -61 -57 -80 -101 -132 -268
-455 -361 -700 -57 -149 -136 -448 -152 -574 -3 -22 -8 -53 -11 -70 -7 -33 -8
-41 -20 -161 -16 -152 -9 -594 11 -705 6 -35 17 -102 20 -123 3 -23 14 -88 22
-122 3 -11 6 -29 8 -40 5 -30 40 -161 66 -246 12 -40 23 -76 24 -79 4 -14 18
-48 31 -78 8 -18 14 -38 14 -45 1 -7 9 -30 20 -52 11 -22 19 -44 20 -49 0 -11
151 -319 159 -326 6 -5 25 -38 62 -108 12 -23 26 -42 31 -42 4 0 8 -4 8 -10 0
-15 161 -242 192 -271 10 -9 18 -20 18 -24 0 -4 8 -15 18 -24 9 -9 32 -34 51
-56 72 -85 260 -272 341 -339 84 -69 207 -162 278 -210 91 -61 286 -176 299
-176 5 0 15 -6 21 -12 7 -7 16 -13 20 -13 4 -1 51 -22 104 -48 54 -26 100 -47
104 -47 3 0 20 -7 37 -15 35 -16 253 -95 277 -100 8 -2 58 -14 110 -29 99 -26
263 -60 340 -70 25 -4 56 -8 70 -10 87 -15 192 -20 395 -20 231 0 317 4 436
23 35 6 80 12 99 15 104 14 309 64 460 112 41 13 77 23 80 22 3 0 24 9 47 21
23 11 46 21 51 21 5 0 31 10 58 22 27 12 51 22 54 23 15 2 239 115 320 162 87
51 228 140 240 153 3 3 28 21 55 39 28 19 52 38 55 41 3 3 25 21 50 40 112 87
315 280 400 380 12 14 37 43 55 65 188 220 368 514 489 799 57 134 139 377
161 476 16 71 45 212 50 240 3 19 7 46 10 60 5 27 12 87 23 195 14 149 7 577
-12 671 -2 12 -7 45 -11 75 -7 59 -51 277 -69 344 -48 177 -142 441 -168 472
-6 7 -8 13 -5 13 9 0 -104 225 -114 228 -5 2 -9 12 -9 22 0 9 -7 23 -15 30 -8
7 -15 16 -15 21 0 11 -83 143 -92 147 -5 2 -8 8 -8 14 0 11 -131 193 -170 238
-12 14 -34 40 -49 59 -69 91 -281 302 -391 391 -30 25 -57 47 -60 50 -24 27
-227 170 -240 170 -5 0 -10 5 -10 10 0 6 -5 10 -10 10 -6 0 -20 9 -32 20 -12
10 -25 17 -30 14 -4 -3 -8 -1 -8 5 0 6 -11 13 -25 17 -14 3 -25 10 -25 14 0
11 -327 172 -435 214 -94 36 -270 94 -365 120 -121 32 -137 36 -175 41 -22 4
-49 9 -60 12 -11 3 -31 7 -45 8 -14 1 -38 5 -55 8 -16 4 -57 9 -90 13 -33 3
-69 8 -80 11 -23 5 -521 13 -527 8z"/>
</g>
</svg>
